<svg id="visual" viewBox="0 0 2200 1080" width="2200" height="1080" xmlns="http://www.w3.org/2000/svg" xmlns:xlink="http://www.w3.org/1999/xlink" version="1.1"><rect x="0" y="0" width="2200" height="1080" fill="#0B2545"></rect><path d="M0 713L52.3 681.8C104.7 650.7 209.3 588.3 314.2 586.3C419 584.3 524 642.7 628.8 651C733.7 659.3 838.3 617.7 943 615C1047.7 612.3 1152.3 648.7 1257 673.5C1361.7 698.3 1466.3 711.7 1571.2 683.8C1676 656 1781 587 1885.8 570.3C1990.7 553.7 2095.3 589.3 2147.7 607.2L2200 625L2200 1081L2147.7 1081C2095.3 1081 1990.7 1081 1885.8 1081C1781 1081 1676 1081 1571.2 1081C1466.3 1081 1361.7 1081 1257 1081C1152.3 1081 1047.7 1081 943 1081C838.3 1081 733.7 1081 628.8 1081C524 1081 419 1081 314.2 1081C209.3 1081 104.7 1081 52.3 1081L0 1081Z" fill="#f7ce47"></path><path d="M0 798L52.3 766C104.7 734 209.3 670 314.2 663.2C419 656.3 524 706.7 628.8 713C733.7 719.3 838.3 681.7 943 686C1047.7 690.3 1152.3 736.7 1257 762.7C1361.7 788.7 1466.3 794.3 1571.2 766.7C1676 739 1781 678 1885.8 664.3C1990.7 650.7 2095.3 684.3 2147.7 701.2L2200 718L2200 1081L2147.7 1081C2095.3 1081 1990.7 1081 1885.8 1081C1781 1081 1676 1081 1571.2 1081C1466.3 1081 1361.7 1081 1257 1081C1152.3 1081 1047.7 1081 943 1081C838.3 1081 733.7 1081 628.8 1081C524 1081 419 1081 314.2 1081C209.3 1081 104.7 1081 52.3 1081L0 1081Z" fill="#f9ba46"></path><path d="M0 796L52.3 791.3C104.7 786.7 209.3 777.3 314.2 764C419 750.7 524 733.3 628.8 740.2C733.7 747 838.3 778 943 767C1047.7 756 1152.3 703 1257 699.7C1361.7 696.3 1466.3 742.7 1571.2 771.3C1676 800 1781 811 1885.8 796.7C1990.7 782.3 2095.3 742.7 2147.7 722.8L2200 703L2200 1081L2147.7 1081C2095.3 1081 1990.7 1081 1885.8 1081C1781 1081 1676 1081 1571.2 1081C1466.3 1081 1361.7 1081 1257 1081C1152.3 1081 1047.7 1081 943 1081C838.3 1081 733.7 1081 628.8 1081C524 1081 419 1081 314.2 1081C209.3 1081 104.7 1081 52.3 1081L0 1081Z" fill="#f8a649"></path><path d="M0 735L52.3 745C104.7 755 209.3 775 314.2 795.2C419 815.3 524 835.7 628.8 830.3C733.7 825 838.3 794 943 775.8C1047.7 757.7 1152.3 752.3 1257 757.5C1361.7 762.7 1466.3 778.3 1571.2 769C1676 759.7 1781 725.3 1885.8 716.8C1990.7 708.3 2095.3 725.7 2147.7 734.3L2200 743L2200 1081L2147.7 1081C2095.3 1081 1990.7 1081 1885.8 1081C1781 1081 1676 1081 1571.2 1081C1466.3 1081 1361.7 1081 1257 1081C1152.3 1081 1047.7 1081 943 1081C838.3 1081 733.7 1081 628.8 1081C524 1081 419 1081 314.2 1081C209.3 1081 104.7 1081 52.3 1081L0 1081Z" fill="#f4944d"></path><path d="M0 876L52.3 871C104.7 866 209.3 856 314.2 835.2C419 814.3 524 782.7 628.8 788.2C733.7 793.7 838.3 836.3 943 835.8C1047.7 835.3 1152.3 791.7 1257 781C1361.7 770.3 1466.3 792.7 1571.2 792.5C1676 792.3 1781 769.7 1885.8 781.3C1990.7 793 2095.3 839 2147.7 862L2200 885L2200 1081L2147.7 1081C2095.3 1081 1990.7 1081 1885.8 1081C1781 1081 1676 1081 1571.2 1081C1466.3 1081 1361.7 1081 1257 1081C1152.3 1081 1047.7 1081 943 1081C838.3 1081 733.7 1081 628.8 1081C524 1081 419 1081 314.2 1081C209.3 1081 104.7 1081 52.3 1081L0 1081Z" fill="#ec8253"></path><path d="M0 895L52.3 890.3C104.7 885.7 209.3 876.3 314.2 867.7C419 859 524 851 628.8 849.8C733.7 848.7 838.3 854.3 943 856.3C1047.7 858.3 1152.3 856.7 1257 865.3C1361.7 874 1466.3 893 1571.2 884.2C1676 875.3 1781 838.7 1885.8 839.5C1990.7 840.3 2095.3 878.7 2147.7 897.8L2200 917L2200 1081L2147.7 1081C2095.3 1081 1990.7 1081 1885.8 1081C1781 1081 1676 1081 1571.2 1081C1466.3 1081 1361.7 1081 1257 1081C1152.3 1081 1047.7 1081 943 1081C838.3 1081 733.7 1081 628.8 1081C524 1081 419 1081 314.2 1081C209.3 1081 104.7 1081 52.3 1081L0 1081Z" fill="#e17258"></path><path d="M0 881L52.3 887.7C104.7 894.3 209.3 907.7 314.2 917.5C419 927.3 524 933.7 628.8 939.3C733.7 945 838.3 950 943 954C1047.7 958 1152.3 961 1257 961C1361.7 961 1466.3 958 1571.2 950C1676 942 1781 929 1885.8 925.7C1990.7 922.3 2095.3 928.7 2147.7 931.8L2200 935L2200 1081L2147.7 1081C2095.3 1081 1990.7 1081 1885.8 1081C1781 1081 1676 1081 1571.2 1081C1466.3 1081 1361.7 1081 1257 1081C1152.3 1081 1047.7 1081 943 1081C838.3 1081 733.7 1081 628.8 1081C524 1081 419 1081 314.2 1081C209.3 1081 104.7 1081 52.3 1081L0 1081Z" fill="#d4635d"></path><path d="M0 982L52.3 980C104.7 978 209.3 974 314.2 967.3C419 960.7 524 951.3 628.8 954.8C733.7 958.3 838.3 974.7 943 970.7C1047.7 966.7 1152.3 942.3 1257 937.5C1361.7 932.7 1466.3 947.3 1571.2 948.8C1676 950.3 1781 938.7 1885.8 932.3C1990.7 926 2095.3 925 2147.7 924.5L2200 924L2200 1081L2147.7 1081C2095.3 1081 1990.7 1081 1885.8 1081C1781 1081 1676 1081 1571.2 1081C1466.3 1081 1361.7 1081 1257 1081C1152.3 1081 1047.7 1081 943 1081C838.3 1081 733.7 1081 628.8 1081C524 1081 419 1081 314.2 1081C209.3 1081 104.7 1081 52.3 1081L0 1081Z" fill="#c45761"></path><path d="M0 988L52.3 993.3C104.7 998.7 209.3 1009.3 314.2 1016.5C419 1023.7 524 1027.3 628.8 1026.2C733.7 1025 838.3 1019 943 1012.7C1047.7 1006.3 1152.3 999.7 1257 1001C1361.7 1002.3 1466.3 1011.7 1571.2 1012C1676 1012.3 1781 1003.7 1885.8 997.3C1990.7 991 2095.3 987 2147.7 985L2200 983L2200 1081L2147.7 1081C2095.3 1081 1990.7 1081 1885.8 1081C1781 1081 1676 1081 1571.2 1081C1466.3 1081 1361.7 1081 1257 1081C1152.3 1081 1047.7 1081 943 1081C838.3 1081 733.7 1081 628.8 1081C524 1081 419 1081 314.2 1081C209.3 1081 104.7 1081 52.3 1081L0 1081Z" fill="#b24c63"></path></svg>