<svg id="visual" viewBox="0 0 960 540" width="960" height="540" xmlns="http://www.w3.org/2000/svg" xmlns:xlink="http://www.w3.org/1999/xlink" version="1.1"><rect x="0" y="0" width="960" height="540" fill="#0B2545"></rect><path d="M0 356L22.8 340.3C45.7 324.7 91.3 293.3 137 292.3C182.7 291.3 228.3 320.7 274 324.8C319.7 329 365.3 308 411.2 306.7C457 305.3 503 323.7 548.8 336.2C594.7 348.7 640.3 355.3 686 341.3C731.7 327.3 777.3 292.7 823 284.3C868.7 276 914.3 294 937.2 303L960 312L960 541L937.2 541C914.3 541 868.7 541 823 541C777.3 541 731.7 541 686 541C640.3 541 594.7 541 548.8 541C503 541 457 541 411.2 541C365.3 541 319.7 541 274 541C228.3 541 182.7 541 137 541C91.3 541 45.7 541 22.8 541L0 541Z" fill="#f7ce47"></path><path d="M0 399L22.8 382.8C45.7 366.7 91.3 334.3 137 330.8C182.7 327.3 228.3 352.7 274 355.8C319.7 359 365.3 340 411.2 342.2C457 344.3 503 367.7 548.8 380.7C594.7 393.7 640.3 396.3 686 382.5C731.7 368.7 777.3 338.3 823 331.7C868.7 325 914.3 342 937.2 350.5L960 359L960 541L937.2 541C914.3 541 868.7 541 823 541C777.3 541 731.7 541 686 541C640.3 541 594.7 541 548.8 541C503 541 457 541 411.2 541C365.3 541 319.7 541 274 541C228.3 541 182.7 541 137 541C91.3 541 45.7 541 22.8 541L0 541Z" fill="#f9ba46"></path><path d="M0 398L22.8 395.7C45.7 393.3 91.3 388.7 137 381.8C182.7 375 228.3 366 274 369.3C319.7 372.7 365.3 388.3 411.2 382.8C457 377.3 503 350.7 548.8 349C594.7 347.3 640.3 370.7 686 385C731.7 399.3 777.3 404.7 823 397.5C868.7 390.3 914.3 370.7 937.2 360.8L960 351L960 541L937.2 541C914.3 541 868.7 541 823 541C777.3 541 731.7 541 686 541C640.3 541 594.7 541 548.8 541C503 541 457 541 411.2 541C365.3 541 319.7 541 274 541C228.3 541 182.7 541 137 541C91.3 541 45.7 541 22.8 541L0 541Z" fill="#f8a649"></path><path d="M0 367L22.8 372C45.7 377 91.3 387 137 397.2C182.7 407.3 228.3 417.7 274 415C319.7 412.3 365.3 396.7 411.2 387.5C457 378.3 503 375.7 548.8 378.2C594.7 380.7 640.3 388.3 686 383.7C731.7 379 777.3 362 823 357.8C868.7 353.7 914.3 362.3 937.2 366.7L960 371L960 541L937.2 541C914.3 541 868.7 541 823 541C777.3 541 731.7 541 686 541C640.3 541 594.7 541 548.8 541C503 541 457 541 411.2 541C365.3 541 319.7 541 274 541C228.3 541 182.7 541 137 541C91.3 541 45.7 541 22.8 541L0 541Z" fill="#f4944d"></path><path d="M0 437L22.8 434.7C45.7 432.3 91.3 427.7 137 417.3C182.7 407 228.3 391 274 393.7C319.7 396.3 365.3 417.7 411.2 417.3C457 417 503 395 548.8 389.7C594.7 384.3 640.3 395.7 686 395.7C731.7 395.7 777.3 384.3 823 390.2C868.7 396 914.3 419 937.2 430.5L960 442L960 541L937.2 541C914.3 541 868.7 541 823 541C777.3 541 731.7 541 686 541C640.3 541 594.7 541 548.8 541C503 541 457 541 411.2 541C365.3 541 319.7 541 274 541C228.3 541 182.7 541 137 541C91.3 541 45.7 541 22.8 541L0 541Z" fill="#ec8253"></path><path d="M0 447L22.8 444.7C45.7 442.3 91.3 437.7 137 433.3C182.7 429 228.3 425 274 424.3C319.7 423.7 365.3 426.3 411.2 427.3C457 428.3 503 427.7 548.8 432.2C594.7 436.7 640.3 446.3 686 442C731.7 437.7 777.3 419.3 823 419.7C868.7 420 914.3 439 937.2 448.5L960 458L960 541L937.2 541C914.3 541 868.7 541 823 541C777.3 541 731.7 541 686 541C640.3 541 594.7 541 548.8 541C503 541 457 541 411.2 541C365.3 541 319.7 541 274 541C228.3 541 182.7 541 137 541C91.3 541 45.7 541 22.8 541L0 541Z" fill="#e17258"></path><path d="M0 440L22.8 443.3C45.7 446.7 91.3 453.3 137 458.2C182.7 463 228.3 466 274 468.8C319.7 471.7 365.3 474.3 411.2 476.5C457 478.7 503 480.3 548.8 480.3C594.7 480.3 640.3 478.7 686 474.7C731.7 470.7 777.3 464.3 823 462.7C868.7 461 914.3 464 937.2 465.5L960 467L960 541L937.2 541C914.3 541 868.7 541 823 541C777.3 541 731.7 541 686 541C640.3 541 594.7 541 548.8 541C503 541 457 541 411.2 541C365.3 541 319.7 541 274 541C228.3 541 182.7 541 137 541C91.3 541 45.7 541 22.8 541L0 541Z" fill="#d4635d"></path><path d="M0 491L22.8 490C45.7 489 91.3 487 137 483.5C182.7 480 228.3 475 274 476.7C319.7 478.3 365.3 486.7 411.2 484.8C457 483 503 471 548.8 468.5C594.7 466 640.3 473 686 473.7C731.7 474.3 777.3 468.7 823 465.7C868.7 462.7 914.3 462.3 937.2 462.2L960 462L960 541L937.2 541C914.3 541 868.7 541 823 541C777.3 541 731.7 541 686 541C640.3 541 594.7 541 548.8 541C503 541 457 541 411.2 541C365.3 541 319.7 541 274 541C228.3 541 182.7 541 137 541C91.3 541 45.7 541 22.8 541L0 541Z" fill="#c45761"></path><path d="M0 494L22.8 496.5C45.7 499 91.3 504 137 507.5C182.7 511 228.3 513 274 512.5C319.7 512 365.3 509 411.2 505.8C457 502.7 503 499.3 548.8 500C594.7 500.7 640.3 505.3 686 505.5C731.7 505.7 777.3 501.3 823 498.2C868.7 495 914.3 493 937.2 492L960 491L960 541L937.2 541C914.3 541 868.7 541 823 541C777.3 541 731.7 541 686 541C640.3 541 594.7 541 548.8 541C503 541 457 541 411.2 541C365.3 541 319.7 541 274 541C228.3 541 182.7 541 137 541C91.3 541 45.7 541 22.8 541L0 541Z" fill="#b24c63"></path></svg>